<?xml version="1.0" standalone="no"?>
<!DOCTYPE svg PUBLIC "-//W3C//DTD SVG 20010904//EN"
 "http://www.w3.org/TR/2001/REC-SVG-20010904/DTD/svg10.dtd">
<svg version="1.0" xmlns="http://www.w3.org/2000/svg"
 width="277.000000pt" height="277.000000pt" viewBox="0 0 277.000000 277.000000"
 preserveAspectRatio="xMidYMid meet">
<metadata>
Created by potrace 1.14, written by Peter Selinger 2001-2017
</metadata>
<g transform="translate(0.000000,277.000000) scale(0.100000,-0.100000)"
fill="#000000" stroke="none">
<path d="M685 2099 c-4 -6 -121 -287 -260 -623 l-253 -611 -79 -31 -78 -32 0
-43 0 -44 75 -5 c44 -3 68 -8 57 -12 -9 -4 -17 -12 -17 -18 0 -6 60 -10 170
-10 141 0 170 2 170 14 0 8 -9 18 -20 21 -16 5 -20 15 -20 51 0 41 -3 45 -35
58 l-34 15 44 106 c25 59 48 111 51 116 3 5 84 9 180 9 l175 0 20 -47 c85
-200 114 -234 256 -297 87 -39 90 -40 236 -44 107 -3 147 -1 147 7 0 6 -10 16
-22 21 -17 6 -2 9 52 8 41 0 65 -3 53 -5 -13 -2 -23 -11 -23 -19 0 -12 43 -14
273 -14 291 0 457 11 549 35 184 48 280 153 282 309 1 64 -3 81 -38 156 -50
108 -86 154 -154 197 l-54 35 43 25 c149 84 177 206 89 388 -69 142 -143 200
-315 246 -73 20 -112 22 -437 26 l-358 5 0 -49 0 -50 55 -12 55 -12 0 -569 0
-569 -54 -12 c-44 -9 -62 -9 -97 2 l-43 14 -233 555 c-206 493 -273 648 -302
700 -10 19 -96 26 -106 9z m70 -99 c25 -49 24 -54 -90 -324 l-17 -40 -21 48
-20 48 43 106 c69 168 79 192 84 192 3 0 12 -13 21 -30z m1075 -5 l0 -25 -120
0 -120 0 0 25 0 25 120 0 120 0 0 -25z m341 1 c65 -14 173 -55 166 -63 -2 -2
-33 3 -68 12 -35 8 -82 15 -104 15 -27 1 -50 9 -70 25 -26 22 -27 25 -10 25
11 0 50 -7 86 -14z m-547 -72 c14 -6 16 -65 16 -570 l0 -564 -25 0 -25 0 0
570 c0 339 4 570 9 570 5 0 16 -3 25 -6z m462 -29 c37 -48 53 -100 54 -168 0
-118 -67 -211 -167 -230 l-33 -7 0 220 0 220 59 0 c57 0 61 -2 87 -35z m173
-245 c-1 -127 -29 -170 -111 -170 l-38 0 34 44 c52 68 69 132 64 235 l-5 86
29 -60 c23 -50 28 -73 27 -135z m-1471 -313 c55 -131 96 -237 91 -235 -8 3
-209 470 -209 486 0 23 32 -45 118 -251z m-243 48 c-64 -155 -79 -184 -91
-172 -3 3 27 84 67 181 46 112 76 173 82 167 6 -6 -15 -70 -58 -176z m149 -42
c25 -62 46 -117 46 -123 0 -6 -41 -10 -111 -10 -85 0 -110 3 -106 13 22 53 90
217 98 237 13 31 12 32 73 -117z m1641 1 c36 -14 68 -30 71 -35 3 -5 -5 -5
-18 0 -13 5 -57 14 -98 21 -100 16 -110 20 -85 30 34 14 63 11 130 -16z m-187
-50 c39 -48 57 -112 55 -205 -3 -155 -71 -239 -207 -255 l-56 -7 0 252 0 251
89 0 90 0 29 -36z m148 -109 c44 -95 43 -237 -2 -331 -17 -35 -38 -45 -133
-58 l-45 -7 39 31 c103 82 147 243 109 397 -11 41 7 24 32 -32z m-1876 -92 c0
-23 -97 -243 -107 -243 -17 0 -19 -6 28 106 23 55 45 109 50 122 8 20 29 31
29 15z m520 -119 c57 -137 47 -136 -16 2 -18 41 -30 74 -25 74 5 0 23 -34 41
-76z m-690 -180 c0 -2 -15 -4 -32 -3 -27 0 -29 2 -13 8 18 8 45 4 45 -5z"/>
</g>
</svg>
